# xmcd CD database file
#
# Track frame offsets:
#	150
#	33628
#	67426
#	90389
#	113975
#	133103
#	167291
#	191602
#	217640
#	235942
#	254328
#	272376
#
# Disc length: 4001 seconds
#
# Revision: 0
# Processed by: cddbd v1.5.2PL0 Copyright (c) Steve Scherf et al.
# Submitted via: CDex 1.70beta2
#
DISCID=a40f9f0c
DTITLE=bvcvcvb - vcbvcbvc
DYEAR=1962
DGENRE=New Age
TTITLE0=vvv
TTITLE1=bvbvvc
TTITLE2=vbvbc
TTITLE3=vbvcbvcbvbc
TTITLE4=vbvcbvc
TTITLE5=vcbvcb
TTITLE6=sddsa
TTITLE7=vcbvc
TTITLE8=vbvcbvc
TTITLE9=vcbcvbvcb
TTITLE10=ccxyx
TTITLE11=xcxyc
EXTD=YEAR: 1962
EXTT0=
EXTT1=
EXTT2=
EXTT3=
EXTT4=
EXTT5=
EXTT6=
EXTT7=
EXTT8=
EXTT9=
EXTT10=
EXTT11=
PLAYORDER=
